<svg id="Layer_1" enable-background="new 0 0 128 128" viewBox="0 0 128 128" xmlns="http://www.w3.org/2000/svg"><g><path d="m111.9 91.6c0-.1 0-.2 0-.3-2.5-10.3-10.9-18.3-21.5-20.1-.2-4.7-2.9-9.2-5.9-12.9.8.5 1.9.1 2.4-.7.1-.2.2-.5.2-.7.2-2.8-.3-5.6-1.6-8.1 3.8-1.1 6-5.1 4.9-8.9-.5-1.8-1.7-3.3-3.4-4.3 2.5-3.6.6-7.4-1.4-8.7.4-3.5-2.4-8.7-8.5-8.5-3.1-5-9.6-5.3-13.2-1-3.8-4.6-10.3-3.8-13.2 1-5.6-.1-8.7 4.1-8.5 8.5-3.1 2.3-3.2 6.2-1.4 8.7-3.5 1.9-4.7 6.3-2.8 9.7.9 1.6 2.5 2.9 4.3 3.4-1.3 2.5-1.8 5.3-1.6 8.1.1 1 .9 1.7 1.9 1.6.3 0 .5-.1.7-.2-3 3.6-5.8 8.2-5.9 12.9-10.4 1.9-18.8 9.9-21.2 20.3v.3l-1.5 19.9c-.1 1 .6 1.8 1.6 1.9h.1c.9 0 1.7-.7 1.7-1.6l1.5-19.9c2.2-9 9.5-15.8 18.6-17.3 3.6 11.2 22.1 34.8 24.4 37.8.6.8 1.9 1 2.7 0 2.3-2.9 20.8-26.6 24.4-37.8 9.1 1.5 16.4 8.4 18.6 17.3l1.5 19.8c.1.9.8 1.6 1.7 1.6h.1c1-.1 1.7-.9 1.6-1.9zm-48.1-68.1c9.4 0 16.4 7.3 16.3 16.2 0 .3-.2 4-.2 4-3.4-1.3-6.9-.6-9 1.8-1.9 2.4-5.9 3.5-6.9 3.6-1.1-.1-5-1.3-6.9-3.6-2-2.4-5.6-3.1-9-1.8 0 0-.2-2.4-.2-3.2-.4-10.8 8-16.9 15.9-17zm-14.4 23.5c2-.8 4-.5 5.1.8 2.9 3.4 8.3 4.8 9.7 4.8 1.3-.1 6.6-1.4 9.5-4.8 1.1-1.3 3.1-1.6 5.1-.8 2.6 1.2 4.4 3.6 4.8 6.4-1.9-.9-3.4-1-4.1-1-2.5.1-4.9 1.2-6.6 3.2-.8 1-2 1.6-3.3 1.6-1.4-.2-2.8-1.4-3.9-3.2-.8-1.3-2.4-1.1-3 0-1 1.8-2.5 3-3.9 3.2-1.3 0-2.6-.6-3.3-1.6-1.7-1.9-4.1-3.1-6.6-3.2-.7 0-2.8.2-4.1 1 .1-2.8 2-5.2 4.6-6.4zm20.2 13.8c-2.2 3.1-6.5 3.8-9.6 1.6-.6-.4-1.2-1-1.6-1.6 2.2-.1 4.3-1.3 5.6-2.8 1.3 1.5 3.5 2.7 5.6 2.8zm-20.7-4.8c1.5.2 2.9.9 3.8 2.1.5.6 1.1 1.1 1.7 1.5.4 4.3 4.5 7.6 9.5 7.6s9.2-3.4 9.5-7.6c.6-.4 1.2-.9 1.7-1.5 1-1.2 2.3-1.9 3.8-2.1l-.4 6.6c-.1 2.4-1.4 4.4-3.2 5.7-3 2.2-6.4 1.1-7.2.7-2.8-1.2-5.9-1.2-8.7 0-2.3 1-4.8.8-6.8-.5-3.2-2-3.5-5.1-3.6-5.9zm34.3-10.3.3-5c0-.8 0-1.6 0-2.4 2 0 3.7 1.6 3.7 3.7 0 2-1.5 3.7-4 3.7zm-12.9-27.6c1.9 0 3.6 1.2 4.2 3 .3.8 1.2 1.3 2.1 1.1 4.5-.9 6 3.3 5.5 5.4-.2.8.2 1.7 1 2 1.4.6 2 2.2 1.5 3.6-.3.7-.9 1.2-1.6 1.5-2-7.7-8.5-13.5-16.5-14.5.8-1.3 2.2-2.1 3.8-2.1zm-25.4 11.5c.8-.3 1.2-1.2 1-2-.6-2.4 1.3-6.2 5.5-5.4.9.2 1.8-.3 2.1-1.1.8-2.3 3.4-3.6 5.7-2.7.9.3 1.8 1 2.3 1.8-7.9 1-14.5 6.7-16.5 14.5-2.2-.7-2.4-4.2-.1-5.1zm-4.1 12.4c0-2 1.6-3.7 3.7-3.7-.1.8-.1 1.6 0 2.4l.3 5c-2.5 0-4-1.7-4-3.7zm4.9 19.2.1 1.5c.2 3.4 1.9 6.3 4.5 8.2 2 1.5 6.4 3.1 10.8 1.2 1.9-.8 4-.8 5.9 0 3.8 1.7 8.1 1 11.1-1.4 3.7-3 4.1-6.7 4.2-8l.1-1.5c2.3 2.9 4.5 6.6 4.6 10.2 0 .4 0 .7-.1 1.1-1.2 5.5-9.9 18.6-17.9 29.4l5.5-14.8c.4-.9-.1-1.9-1-2.3s-1.9.1-2.3 1v.1l-7.2 19.4-7.2-19.4c-.3-.9-1.3-1.4-2.2-1.1s-1.4 1.3-1.1 2.2v.1l5.5 14.9c-8.6-11.7-18.1-26-18-30.5.1-3.6 2.4-7.4 4.7-10.3z"/><path d="m35.7 99.1c-1 0-1.8.8-1.8 1.8v10.8c0 1 .8 1.8 1.8 1.8s1.8-.8 1.8-1.8v-10.8c-.1-1-.9-1.8-1.8-1.8z"/><path d="m92.3 99.1c-1 0-1.7.8-1.8 1.8v10.8c0 1 .8 1.8 1.8 1.8s1.8-.8 1.8-1.8v-10.8c0-1-.8-1.8-1.8-1.8z"/><path d="m54.7 38.9h3.7c1 0 1.8-.8 1.8-1.8s-.8-1.8-1.8-1.8h-3.7c-1 0-1.8.8-1.8 1.8s.8 1.8 1.8 1.8z"/><path d="m64.6 45.8c1 0 1.7-.8 1.8-1.7v-5.2h7c1 0 1.8-.8 1.8-1.8s-.8-1.8-1.8-1.8h-8.7c-1 0-1.8.8-1.8 1.8v6.9c-.1 1 .7 1.8 1.7 1.8z"/></g></svg>